<svg width="238" height="40" viewBox="0 0 238 40" fill="none" xmlns="http://www.w3.org/2000/svg">
<g clip-path="url(#clip0_2_8)" filter="url(#filter0_d_2_8)">
<path d="M26.2711 16.2711L22.9174 18.1986V25.5962L28.6164 22.3172V10.2249L18.1399 4.20894L7.67094 10.2212V22.3247L13.3813 25.5962V18.1986L10.0049 16.2711V11.5953L17.0484 15.6424V31.9134L4 24.4066V8.13553L18.1399 0L32.2836 8.13553V24.4066L19.2351 31.9134V15.6424L26.2711 11.5953V16.2711Z" fill="#2F80ED"/>
<path d="M10.0049 11.5954L18.1399 6.65607L26.2711 11.5954L22.2036 13.9332L18.1399 11.5954L14.0724 13.9332L10.0049 11.5954Z" fill="#323450"/>
<path fill-rule="evenodd" clip-rule="evenodd" d="M43.552 17.1794H52.5651C55.4614 17.1794 55.3666 20.6907 52.5651 20.7109H39.6138V24.0806H54.5006C57.769 23.8043 59.393 21.5196 59.4402 19.2147C59.4806 16.7009 57.6062 14.1601 53.8575 14.1601H45.0608C42.3949 14.1601 42.4897 11.0465 45.0608 11.0465H58.3102V7.90588H42.9297C39.9183 8.162 38.4161 10.2647 38.3687 12.3877C38.3214 14.7128 40.0604 17.139 43.5317 17.1592L43.552 17.1794ZM61.9505 7.90588V11.2756H68.7172V24.0806H73.3727V11.2756H80.1394V7.90588H61.9505ZM80.1326 24.0806C80.1326 24.0806 84.1926 13.8366 85.8301 10.4939C86.8993 8.35068 88.3541 7.93284 90.648 7.93284H93.5444C95.838 7.93284 97.2931 8.35068 98.3619 10.4939C100.027 13.8636 104.06 24.0806 104.06 24.0806H98.9575C98.9575 24.0806 96.2507 16.9772 94.4916 13.0077C94.0044 11.9226 93.4496 11.6598 92.0828 11.6598C90.7156 11.6598 90.154 11.9361 89.6736 13.0077C87.9077 16.9772 85.2009 24.0806 85.2009 24.0806H80.1326ZM105.501 7.90588L105.548 24.0806H110.366V23.9796L110.319 11.0802H117.011C117.288 11.0546 117.567 11.0887 117.829 11.1802C118.091 11.2716 118.331 11.4182 118.531 11.6101C118.731 11.8019 118.888 12.0344 118.99 12.2919C119.092 12.5493 119.137 12.8256 119.122 13.102V13.4727C119.143 13.7505 119.102 14.0295 119.002 14.2897C118.902 14.5499 118.745 14.7849 118.544 14.978C118.342 15.1711 118.1 15.3175 117.836 15.4068C117.57 15.4961 117.289 15.526 117.011 15.4946H111.178L119.84 24.0941H125.097L119.61 18.588C121.971 18.406 123.778 16.9031 123.778 14.6184V11.9226C123.778 9.57052 121.714 7.93284 119.122 7.93284L105.501 7.90588ZM126.397 7.90588V11.2756H133.163V24.0806H137.818V11.2756H144.585V7.90588H126.397ZM146.987 7.90588V16.9975C146.987 21.1018 149.748 24.0537 155.263 24.0537H160.101C165.616 24.0537 168.37 21.1018 168.37 16.9975V7.90588H163.579V16.3707C163.579 19.1878 161.976 20.6907 158.964 20.6907H156.393C153.382 20.6907 151.785 19.1878 151.785 16.3707V7.90588H146.987ZM176.037 24.0806V17.8803H176.713H183.852C187.534 17.8803 189.408 15.4339 189.435 12.9874C189.462 10.541 187.601 7.91262 183.852 7.91262H171.178V24.0874L176.037 24.0806ZM176.037 10.9993H182.621C185.49 10.9993 185.402 14.5308 182.621 14.5308H176.037V10.9993Z" fill="#2F80ED"/>
<path fill-rule="evenodd" clip-rule="evenodd" d="M192.079 15.9461V19.042H205.4V15.9461H192.079ZM208.674 24.0941H213.48V7.90588H208.674V24.0941ZM215.731 7.90588V11.2784H222.509V24.0941H227.221V11.2784H234V7.90588H215.731Z" fill="#2F80ED"/>
</g>
<defs>
<filter id="filter0_d_2_8" x="0" y="0" width="238" height="40" filterUnits="userSpaceOnUse" color-interpolation-filters="sRGB">
<feFlood flood-opacity="0" result="BackgroundImageFix"/>
<feColorMatrix in="SourceAlpha" type="matrix" values="0 0 0 0 0 0 0 0 0 0 0 0 0 0 0 0 0 0 127 0" result="hardAlpha"/>
<feOffset dy="4"/>
<feGaussianBlur stdDeviation="2"/>
<feComposite in2="hardAlpha" operator="out"/>
<feColorMatrix type="matrix" values="0 0 0 0 0 0 0 0 0 0 0 0 0 0 0 0 0 0 0.25 0"/>
<feBlend mode="normal" in2="BackgroundImageFix" result="effect1_dropShadow_2_8"/>
<feBlend mode="normal" in="SourceGraphic" in2="effect1_dropShadow_2_8" result="shape"/>
</filter>
<clipPath id="clip0_2_8">
<rect width="230" height="32" fill="white" transform="translate(4)"/>
</clipPath>
</defs>
</svg>
